<svg width="25" height="25" viewBox="0 0 25 25" fill="none" xmlns="http://www.w3.org/2000/svg">
    <path d="M12 21c2.21 0 4.21-.895 5.657-2.343A7.975 7.975 0 0 0 20 13c0-2.21-.895-4.21-2.343-5.657A7.975 7.975 0 0 0 12 5c-2.21 0-4.21.895-5.657 2.343A7.975 7.975 0 0 0 4 13c0 2.21.895 4.21 2.343 5.657A7.975 7.975 0 0 0 12 21z" stroke="#4D92FB" stroke-width="1.2" stroke-linejoin="round"/>
    <path d="m9 13 2.333 2L16 11" stroke="#4D92FB" stroke-width="1.2" stroke-linecap="round" stroke-linejoin="round"/>
</svg>
