<svg width="28" height="28" viewBox="0 0 28 28" fill="none" xmlns="http://www.w3.org/2000/svg">
    <g filter="url(#a6v2oxvi5a)">
        <rect x="1" y="1" width="24" height="24" rx="4" fill="#fff"/>
    </g>
    <g clip-path="url(#9lfql2iwdb)">
        <path d="M9.013 17.791c-.283.056-.571.1-.864.133-.294.031-.599.053-.92.066-.322.013-.66.017-1.018.014-.357-.003-.744-.007-1.158-.014-.08 0-.126-.016-.136-.048a.322.322 0 0 1 0-.15l.12-.68c.012-.07.032-.117.06-.141.027-.025.075-.038.143-.038.09.006.18.01.268.01h.26l.625-3.525h-.46c-.126 0-.175-.07-.15-.207l.115-.65c.025-.139.1-.208.225-.208h3.636c.114 0 .16.07.135.207l-.118.66c-.023.133-.092.2-.205.2H9.17l-.611 3.44c.082-.013.166-.024.255-.037l.263-.038c.106-.018.154.019.142.114l-.05.67c-.005.087-.018.143-.04.169-.021.026-.06.044-.113.056l-.003-.003zm-1.556-.849.626-3.525h-.598l-.627 3.535h.303c.1 0 .198-.003.295-.01h.001zm4.174 3.658h-.863c-.062 0-.101-.012-.117-.033-.016-.022-.018-.068-.006-.137l.783-4.412h-.59l-.72 4.064c-.014.082-.033.13-.056.145a.258.258 0 0 1-.128.023h-.802c-.062 0-.104-.007-.124-.023-.02-.015-.023-.064-.009-.145l1.452-8.184c.011-.069.032-.115.058-.136.026-.022.07-.033.133-.033h.802c.062 0 .101.011.117.033.016.021.018.067.006.136l-.542 3.055h.59l.572-3.224c.011-.07.031-.115.057-.137.026-.022.071-.033.133-.033h.855c.062 0 .1.011.118.033.016.021.018.068.006.137l-1.543 8.701c-.012.07-.03.115-.054.137-.023.021-.066.033-.13.033h.002zM20.067 18.998h-7.332c-.074 0-.117-.018-.13-.056a.281.281 0 0 1-.005-.14l.12-.68a.34.34 0 0 1 .057-.151c.026-.032.075-.048.15-.048h7.33c.121 0 .169.067.146.199l-.12.68c-.024.132-.096.198-.215.198l-.001-.002zm-5.993-2.45c-.085.031-.14.04-.168.029-.026-.014-.05-.05-.074-.114l-.215-.66c-.048-.145-.018-.24.092-.284.446-.17.846-.364 1.2-.584.355-.22.668-.468.938-.746.271-.276.501-.584.69-.924.188-.34.34-.72.454-1.14.023-.07.049-.12.078-.152.029-.032.081-.043.16-.037l.801.056c.1.013.158.033.172.062.015.028.01.086-.018.174-.042.175-.09.342-.14.5.024.313.098.606.223.876.127.27.289.515.488.735.2.22.427.413.682.58.255.167.527.3.816.401.07.026.105.056.103.095 0 .038-.024.09-.07.16l-.432.698a.551.551 0 0 0-.058.085c-.016.024-.029.037-.04.037-.026.019-.071.019-.137 0a2.914 2.914 0 0 1-.71-.296 4.323 4.323 0 0 1-.67-.477 3.603 3.603 0 0 1-.986-1.367c-.391.534-.863.995-1.414 1.382-.553.387-1.141.69-1.766.91h.001z" fill="#231F20"/>
        <path d="M3.95 5.8h.82l-.137.771h1.11l-.136.762H4.533l-.269 1.52s-.058.2.17.232h.854l-.13.738h-.856s-1.013.088-.892-.915L3.95 5.8zM17.689 5.8h.82l-.137.771h1.109l-.135.762H18.27l-.269 1.52s-.058.2.17.232h.854l-.132.738h-.854s-1.013.088-.89-.915l.54-3.108zM7.455 6.55c-.931 0-1.819.75-1.984 1.675C5.308 9.15 5.93 9.9 6.86 9.9c.93 0 1.818-.75 1.983-1.675.165-.925-.458-1.675-1.388-1.675zm-.49 2.602c-.505 0-.842-.408-.754-.91.09-.502.57-.91 1.077-.91s.842.408.753.91c-.09.502-.572.91-1.076.91zM21.184 6.528c-.93 0-1.818.75-1.983 1.675-.163.925.458 1.676 1.388 1.676.931 0 1.819-.75 1.984-1.676.163-.925-.458-1.675-1.389-1.675zm-.489 2.602c-.505 0-.842-.407-.754-.91.09-.502.572-.91 1.077-.91s.842.408.753.91c-.09.503-.57.91-1.076.91zM12.195 9.823h.8l.396-2.237c-.01-1.003-.863-1.015-.863-1.015-.742-.066-1.103.341-1.103.341-.265-.385-.834-.364-.834-.364-1.185.055-1.417 1.114-1.417 1.114L8.79 9.834h.82l.376-2.117s.097-.419.54-.419c0 0 .359-.022.334.43l-.373 2.106h.809l.373-2.106s.106-.408.542-.43c0 0 .388 0 .338.463l-.354 2.061.001.001zM16.927 8.215c.164-.926-.457-1.677-1.388-1.677-.93 0-1.818.75-1.983 1.677-.164.925.457 1.675 1.388 1.675.339 0 .672-.1.965-.27l-.034.21.767-.006.284-1.6.001-.01zm-1.877.925c-.506 0-.843-.407-.755-.91.09-.502.57-.909 1.076-.909.505 0 .842.407.753.91-.09.502-.57.909-1.076.909h.002z" fill="#C9252C"/>
    </g>
    <defs>
        <clipPath id="9lfql2iwdb">
            <path fill="#fff" d="M3.4 5.8h19.2v14.8H3.4z"/>
        </clipPath>
        <filter id="a6v2oxvi5a" x="0" y="0" width="28" height="28" filterUnits="userSpaceOnUse" color-interpolation-filters="sRGB">
            <feFlood flood-opacity="0" result="BackgroundImageFix"/>
            <feColorMatrix in="SourceAlpha" values="0 0 0 0 0 0 0 0 0 0 0 0 0 0 0 0 0 0 127 0" result="hardAlpha"/>
            <feOffset dx="1" dy="1"/>
            <feGaussianBlur stdDeviation="1"/>
            <feComposite in2="hardAlpha" operator="out"/>
            <feColorMatrix values="0 0 0 0 0 0 0 0 0 0 0 0 0 0 0 0 0 0 0.06 0"/>
            <feBlend in2="BackgroundImageFix" result="effect1_dropShadow_589_2263"/>
            <feBlend in="SourceGraphic" in2="effect1_dropShadow_589_2263" result="shape"/>
        </filter>
    </defs>
</svg>
