<svg width="24" height="24" viewBox="0 0 24 24" fill="none" xmlns="http://www.w3.org/2000/svg">
    <g clip-path="url(#1zbbqdq8ua)">
        <rect width="24" height="24" rx="5" fill="#D1342A"/>
        <path d="M8.105 18.657H9.22v-.468H7.002v-.263H9.22v-.409H7.002v-.25H9.22V16.8H6.103c.128 0 .272.172.272.388l.001 1.13a.388.388 0 0 0 .076.268.305.305 0 0 0 .223.072h.787v.23H6v.467h.898a1.12 1.12 0 0 0-.144 1.2c.094.193.242.356.428.47a1.18 1.18 0 0 0 1.236 0c.186-.114.334-.277.428-.47a1.11 1.11 0 0 0-.144-1.2H9.6v-.468H8.105v-.23zM7.8 20.668a.627.627 0 0 1-.343-.102.59.59 0 0 1-.093-.927.622.622 0 0 1 .672-.13.614.614 0 0 1 .277.221.593.593 0 0 1-.277.892.63.63 0 0 1-.236.046zM12.338 18.657h1.24v-.468h-2.466v-.263h2.466v-.409h-2.466v-.25h2.466V16.8h-3.464c.142 0 .303.172.303.388v1.13a.36.36 0 0 0 .085.268.38.38 0 0 0 .248.072h.874v.23H10v.466h.998c-.153.167-.25.368-.278.58-.028.213.012.428.117.621.105.193.27.356.476.47.205.115.444.175.687.175.243 0 .481-.06.687-.175.206-.114.37-.277.475-.47.105-.193.146-.408.117-.62a1.068 1.068 0 0 0-.277-.58H14v-.468h-1.662v-.23zM12 20.667a.753.753 0 0 1-.38-.1.626.626 0 0 1-.253-.271.536.536 0 0 1-.04-.349.584.584 0 0 1 .188-.308.719.719 0 0 1 .351-.165.774.774 0 0 1 .396.034.674.674 0 0 1 .308.222.54.54 0 0 1 .063.566.604.604 0 0 1-.149.195.696.696 0 0 1-.222.13.768.768 0 0 1-.262.047zM14.645 19.628v.087h1.993v.25h-1.993v.859a.501.501 0 0 0 .069.296c.027.028.06.05.093.064.035.013.071.018.107.015H17.2v-.517h-1.993v-.264H17.2V19.2h-2.8c.115 0 .245.19.245.428zM16.27 18.38v-.205h.992V16.8h-2.77c.113 0 .242.155.242.348v.722a.35.35 0 0 0 .068.24.273.273 0 0 0 .198.065h.7v.206h-1.3v.419h3.2v-.42h-1.33zm-.98-.626v-.534h1.417v.534H15.29zM14.4 6h-.823v-.786c0-.42-.166-.824-.462-1.121a1.572 1.572 0 0 0-2.23 0 1.59 1.59 0 0 0-.462 1.121V6H9.6v-.786c0-.64.253-1.254.703-1.707a2.393 2.393 0 0 1 3.394 0c.45.453.703 1.067.703 1.707V6z" fill="#fff"/>
        <path d="M17.865 6H6.135a.536.536 0 0 0-.529.614l1.24 8.133a.533.533 0 0 0 .53.453h9.218a.536.536 0 0 0 .53-.451l1.27-8.133a.53.53 0 0 0-.305-.567.536.536 0 0 0-.224-.049zm-7 1.778a.493.493 0 1 1-.988 0v-.287a.492.492 0 0 1 .495-.486.495.495 0 0 1 .494.486v.287zm3.258 0a.492.492 0 0 1-.494.5.495.495 0 0 1-.495-.5v-.287a.493.493 0 0 1 .495-.486.495.495 0 0 1 .494.486v.287z" fill="#fff"/>
    </g>
    <defs>
        <clipPath id="1zbbqdq8ua">
            <path fill="#fff" d="M0 0h24v24H0z"/>
        </clipPath>
    </defs>
</svg>
