<svg width="12" height="12" viewBox="0 0 12 12" fill="none" xmlns="http://www.w3.org/2000/svg">
    <path d="M3.75 6.5a2.25 2.25 0 1 1 0-4.5 2.25 2.25 0 0 1 0 4.5zm0-3.5a1.25 1.25 0 1 0 0 2.5 1.25 1.25 0 0 0 0-2.5zm3.75 7A2.503 2.503 0 0 0 5 7.5H2.5A2.503 2.503 0 0 0 0 10v2h1v-2a1.5 1.5 0 0 1 1.5-1.5H5A1.5 1.5 0 0 1 6.5 10v2h1v-2zm1.25-5.5a2.25 2.25 0 1 1 0-4.5 2.25 2.25 0 0 1 0 4.5zm0-3.5a1.25 1.25 0 1 0 0 2.5 1.25 1.25 0 0 0 0-2.5zM12 8a2.503 2.503 0 0 0-2.5-2.5h-2v1h2A1.5 1.5 0 0 1 11 8v2h1V8z" fill="#4D92FB"/>
</svg>
